<?xml version="1.0" encoding="UTF-8" standalone="no"?>
<!DOCTYPE svg PUBLIC "-//W3C//DTD SVG 1.1//EN" "http://www.w3.org/Graphics/SVG/1.1/DTD/svg11.dtd">
<svg width="100%" height="100%" viewBox="0 0 763 931" version="1.1" xmlns="http://www.w3.org/2000/svg" xmlns:xlink="http://www.w3.org/1999/xlink" xml:space="preserve" xmlns:serif="http://www.serif.com/" style="fill-rule:evenodd;clip-rule:evenodd;stroke-linejoin:round;stroke-miterlimit:2;">
    <g transform="matrix(1,0,0,1,-3068.59113,-786.582193)">
        <g transform="matrix(1,0,0,1,2050,0)">
            <g transform="matrix(1,0,0,1,285.917154,300.591879)">
                <path d="M1028,486C1177.09,485.002 1250.13,561.309 1300.34,653.163C1360.771,763.714 1376.008,901.227 1382,974C1389.427,1064.198 1498.322,1141.827 1495,1253C1493.463,1304.443 1471.347,1344.212 1433.436,1349.629C1397.718,1354.734 1363.957,1327.894 1328,1328C1296.395,1328.094 1250.483,1348.465 1229.191,1358.463C1175.006,1383.907 1140.707,1416.026 1090,1416C962.397,1415.936 903.477,1298.61 829,1286C807.209,1282.31 791.837,1281.618 772,1281C760.871,1254.311 743.404,1198.524 770,1144C804.39,1073.497 781.298,987.586 741.267,879.015C707.569,787.622 766.915,487.748 1028,486Z" style="fill:rgb(248,213,248);fill-opacity:0.67;"/>
                <path d="M1028,486C1177.09,485.002 1250.13,561.309 1300.34,653.163C1360.771,763.714 1376.008,901.227 1382,974C1389.427,1064.198 1498.322,1141.827 1495,1253C1493.463,1304.443 1471.347,1344.212 1433.436,1349.629C1397.718,1354.734 1363.957,1327.894 1328,1328C1296.395,1328.094 1250.483,1348.465 1229.191,1358.463C1175.006,1383.907 1140.707,1416.026 1090,1416C962.397,1415.936 903.477,1298.61 829,1286C807.209,1282.31 791.837,1281.618 772,1281C760.871,1254.311 743.404,1198.524 770,1144C804.39,1073.497 781.298,987.586 741.267,879.015C707.569,787.622 766.915,487.748 1028,486ZM1028.028,490.167C873.554,491.201 790.799,598.199 756.406,702.995C733.512,772.754 731.904,841.579 745.176,877.573C785.692,987.461 808.552,1074.469 773.745,1145.827C748.61,1197.355 763.981,1250.038 774.83,1276.921C793.586,1277.53 808.686,1278.335 829.696,1281.892C860.102,1287.04 888.082,1309.095 918.911,1333.945C963.561,1369.936 1014.548,1411.795 1090.002,1411.833C1114.652,1411.846 1135.294,1403.977 1156.378,1393.081C1178.107,1381.852 1200.274,1367.438 1227.42,1354.691C1249.082,1344.52 1295.833,1323.929 1327.988,1323.833C1346.429,1323.779 1364.33,1330.539 1382.178,1336.754C1398.937,1342.59 1415.644,1347.963 1432.847,1345.504C1469.007,1340.337 1489.369,1301.943 1490.835,1252.876C1492.471,1198.142 1466.304,1151.73 1438.993,1107.836C1410.883,1062.658 1381.611,1020.047 1377.847,974.342C1371.887,901.948 1356.8,765.136 1296.684,655.162C1247.146,564.536 1175.124,489.182 1028.028,490.167Z"/>
            </g>
        </g>
    </g>
</svg>
