<?xml version="1.0" encoding="UTF-8" standalone="no"?>
<!DOCTYPE svg PUBLIC "-//W3C//DTD SVG 1.1//EN" "http://www.w3.org/Graphics/SVG/1.1/DTD/svg11.dtd">
<svg width="100%" height="100%" viewBox="0 0 911 931" version="1.1" xmlns="http://www.w3.org/2000/svg" xmlns:xlink="http://www.w3.org/1999/xlink" xml:space="preserve" xmlns:serif="http://www.serif.com/" style="fill-rule:evenodd;clip-rule:evenodd;stroke-linejoin:round;stroke-miterlimit:2;">
    <g transform="matrix(1,0,0,1,-2630.88608,-413.584427)">
        <g transform="matrix(1,0,0,1,2050,0)">
            <g transform="matrix(1,0,0,1,-4.082846,-72.408121)">
                <path d="M1328,1328C1296.395,1328.094 1250.483,1348.465 1229.191,1358.463C1175.006,1383.907 1140.707,1416.026 1090,1416C962.397,1415.936 904.477,1301.61 830,1289C753.39,1276.028 716.884,1315.546 676,1312C635.116,1308.454 586.264,1278.571 585,1224C584.089,1184.675 603.205,1147.292 641.387,1088.596C688.555,1016.088 693.938,930.7 697,877C702.794,775.396 721.964,692.299 786.788,603.56C834.27,538.56 907.152,485.268 1032,486C1328.737,487.74 1370.986,840.235 1382,974C1389.427,1064.198 1498.322,1141.827 1495,1253C1493.463,1304.443 1471.347,1344.212 1433.436,1349.629C1397.718,1354.734 1363.957,1327.894 1328,1328Z" style="fill:rgb(213,213,248);fill-opacity:0.67;"/>
                <path d="M1328,1328C1296.395,1328.094 1250.483,1348.465 1229.191,1358.463C1175.006,1383.907 1140.707,1416.026 1090,1416C962.397,1415.936 904.477,1301.61 830,1289C753.39,1276.028 716.884,1315.546 676,1312C635.116,1308.454 586.264,1278.571 585,1224C584.089,1184.675 603.205,1147.292 641.387,1088.596C688.555,1016.088 693.938,930.7 697,877C702.794,775.396 721.964,692.299 786.788,603.56C834.27,538.56 907.152,485.268 1032,486C1328.737,487.74 1370.986,840.235 1382,974C1389.427,1064.198 1498.322,1141.827 1495,1253C1493.463,1304.443 1471.347,1344.212 1433.436,1349.629C1397.718,1354.734 1363.957,1327.894 1328,1328ZM1327.988,1323.833C1346.429,1323.779 1364.33,1330.539 1382.178,1336.754C1398.937,1342.59 1415.644,1347.963 1432.847,1345.504C1469.007,1340.337 1489.369,1301.943 1490.835,1252.876C1492.471,1198.142 1466.304,1151.73 1438.993,1107.836C1410.883,1062.658 1381.611,1020.047 1377.847,974.342C1372.367,907.785 1359.163,786.802 1310.37,682.253C1261.976,578.556 1178.416,491.025 1031.976,490.167C908.87,489.445 836.972,541.925 790.153,606.017C725.86,694.03 706.907,776.466 701.16,877.237C698.068,931.462 692.509,1017.651 644.88,1090.869C607.334,1148.586 588.27,1185.234 589.166,1223.904C590.374,1276.08 637.27,1304.458 676.36,1307.849C692.152,1309.219 707.239,1303.8 724.426,1297.769C751.655,1288.213 783.818,1276.954 830.696,1284.892C861.097,1290.039 888.903,1311.609 919.531,1335.867C963.901,1371.009 1014.543,1411.795 1090.002,1411.833C1114.652,1411.846 1135.294,1403.977 1156.378,1393.081C1178.107,1381.852 1200.274,1367.438 1227.42,1354.691C1249.082,1344.52 1295.833,1323.929 1327.988,1323.833Z"/>
            </g>
        </g>
    </g>
</svg>
