<?xml version="1.0" encoding="UTF-8" standalone="no"?>
<!DOCTYPE svg PUBLIC "-//W3C//DTD SVG 1.1//EN" "http://www.w3.org/Graphics/SVG/1.1/DTD/svg11.dtd">
<svg width="100%" height="100%" viewBox="0 0 928 958" version="1.1" xmlns="http://www.w3.org/2000/svg" xmlns:xlink="http://www.w3.org/1999/xlink" xml:space="preserve" xmlns:serif="http://www.serif.com/" style="fill-rule:evenodd;clip-rule:evenodd;stroke-linejoin:round;stroke-miterlimit:2;">
    <g transform="matrix(1,0,0,1,-2389.894691,-271.591879)">
        <g transform="matrix(1,0,0,1,2050,0)">
            <g transform="matrix(1,0,0,1,-228.082846,-207.408121)">
                <path d="M1236.71,1381.501C1202.161,1406.238 1174.527,1437 1091,1437C958.611,1437 898.912,1315.996 785,1316C720.088,1316.002 726.008,1332.754 672,1335C617.992,1337.246 566.748,1294.612 568,1229C569.671,1141.377 612.218,1125.706 650,1022C693.949,901.365 644.304,479 1025,479C1324.894,487.064 1370.986,840.235 1382,974C1389.427,1064.198 1498.322,1141.827 1495,1253C1493.463,1304.443 1471.347,1344.212 1433.436,1349.629C1397.718,1354.734 1363.957,1327.894 1328,1328C1296.395,1328.094 1256.19,1367.554 1236.71,1381.501Z" style="fill:rgb(248,213,213);fill-opacity:0.67;"/>
                <path d="M1236.71,1381.501C1202.161,1406.238 1174.527,1437 1091,1437C958.611,1437 898.912,1315.996 785,1316C720.088,1316.002 726.008,1332.754 672,1335C617.992,1337.246 566.748,1294.612 568,1229C569.671,1141.377 612.218,1125.706 650,1022C693.949,901.365 644.304,479 1025,479C1324.894,487.064 1370.986,840.235 1382,974C1389.427,1064.198 1498.322,1141.827 1495,1253C1493.463,1304.443 1471.347,1344.212 1433.436,1349.629C1397.718,1354.734 1363.957,1327.894 1328,1328C1296.395,1328.094 1256.19,1367.554 1236.71,1381.501ZM1234.285,1378.113C1246.018,1369.712 1265.252,1352.101 1285.608,1339.327C1299.847,1330.391 1314.671,1323.873 1327.988,1323.833C1346.429,1323.779 1364.33,1330.539 1382.178,1336.754C1398.937,1342.59 1415.644,1347.963 1432.847,1345.504C1469.007,1340.337 1489.369,1301.943 1490.835,1252.876C1492.471,1198.142 1466.304,1151.73 1438.993,1107.836C1410.883,1062.658 1381.611,1020.047 1377.847,974.342C1372.368,907.79 1358.204,786.648 1308.067,681.151C1258.314,576.462 1172.99,487.169 1024.944,483.167C934.758,483.177 869.004,507.096 820.598,545.247C747.818,602.609 714.265,691.936 695.419,779.625C674.209,878.318 671.535,975.061 653.915,1023.426C634.921,1075.562 614.748,1105.579 599.095,1133.565C583.838,1160.843 572.985,1186.144 572.166,1229.079C570.966,1292.011 620.025,1332.991 671.827,1330.837C698.242,1329.738 709.999,1325.078 723.092,1320.706C736.769,1316.14 751.835,1311.835 785,1311.833C842.817,1311.831 886.967,1342.316 933.37,1373.024C978.442,1402.85 1025.733,1432.833 1091,1432.833C1173.164,1432.833 1200.299,1402.447 1234.285,1378.113Z"/>
            </g>
        </g>
    </g>
</svg>
