<?xml version="1.0" encoding="UTF-8" standalone="no"?>
<!DOCTYPE svg PUBLIC "-//W3C//DTD SVG 1.1//EN" "http://www.w3.org/Graphics/SVG/1.1/DTD/svg11.dtd">
<svg width="100%" height="100%" viewBox="0 0 790 871" version="1.1" xmlns="http://www.w3.org/2000/svg" xmlns:xlink="http://www.w3.org/1999/xlink" xml:space="preserve" xmlns:serif="http://www.serif.com/" style="fill-rule:evenodd;clip-rule:evenodd;stroke-linejoin:round;stroke-miterlimit:2;">
    <g transform="matrix(1,0,0,1,-2637.924885,-484.817062)">
        <g transform="matrix(1,0,0,1,2050,0)">
            <g transform="matrix(1,0,0,1,-85.082846,-60.408121)">
                <path d="M1327,1328C1295.395,1328.094 1250.483,1348.465 1229.191,1358.463C1175.006,1383.907 1140.707,1416.026 1090,1416C962.397,1415.936 904.477,1301.61 830,1289C762.301,1277.537 725.92,1307.063 690.16,1311.64C685.452,1312.242 672.687,1274.19 673.014,1252C674.045,1182.13 748.214,1099.195 778.014,984C794.369,920.777 809.761,827.205 831.014,731C851.056,640.275 898.293,544.031 1068.584,545.236C1228.566,546.369 1284.149,641.139 1304,731C1325.252,827.205 1340.645,920.777 1357,984C1386.8,1099.195 1460.969,1182.13 1462,1252C1462.928,1314.878 1427.684,1355.901 1381,1340C1353.589,1330.663 1340.146,1327.961 1327,1328Z" style="fill:rgb(248,248,213);fill-opacity:0.67;"/>
                <path d="M1327,1328C1295.395,1328.094 1250.483,1348.465 1229.191,1358.463C1175.006,1383.907 1140.707,1416.026 1090,1416C962.397,1415.936 904.477,1301.61 830,1289C762.301,1277.537 725.92,1307.063 690.16,1311.64C685.452,1312.242 672.687,1274.19 673.014,1252C674.045,1182.13 748.214,1099.195 778.014,984C794.369,920.777 809.761,827.205 831.014,731C851.056,640.275 898.293,544.031 1068.584,545.236C1228.566,546.369 1284.149,641.139 1304,731C1325.252,827.205 1340.645,920.777 1357,984C1386.8,1099.195 1460.969,1182.13 1462,1252C1462.928,1314.878 1427.684,1355.901 1381,1340C1353.589,1330.663 1340.146,1327.961 1327,1328ZM691.223,1307.286C704.752,1305.273 718.428,1299.735 733.994,1294.447C759.226,1285.875 789.204,1277.866 830.696,1284.892C861.097,1290.039 888.903,1311.609 919.531,1335.867C963.901,1371.009 1014.543,1411.795 1090.002,1411.833C1114.652,1411.846 1135.294,1403.977 1156.378,1393.081C1178.107,1381.852 1200.274,1367.438 1227.42,1354.691C1249.085,1344.518 1294.828,1323.929 1326.988,1323.833C1340.46,1323.793 1354.253,1326.488 1382.343,1336.056C1426.424,1351.07 1458.71,1311.433 1457.834,1252.061C1457.429,1224.642 1445.421,1195.211 1429.433,1162.485C1404.883,1112.232 1370.924,1054.461 1352.966,985.044C1336.602,921.784 1321.196,828.159 1299.931,731.899C1288.233,678.944 1264.014,624.185 1212.481,588.665C1178.066,564.944 1131.515,549.849 1068.555,549.403C1001.531,548.929 953.85,563.678 919.535,587.403C868.157,622.925 846.893,678.435 835.082,731.899C813.818,828.159 798.412,921.784 782.048,985.044C764.09,1054.461 730.131,1112.232 705.581,1162.485C689.593,1195.211 677.585,1224.642 677.18,1252.061C676.959,1267.077 682.974,1289.599 688.143,1301.565C689.106,1303.794 690.527,1306.169 691.223,1307.286Z"/>
            </g>
        </g>
    </g>
</svg>
