<?xml version="1.0" encoding="UTF-8" standalone="no"?>
<!DOCTYPE svg PUBLIC "-//W3C//DTD SVG 1.1//EN" "http://www.w3.org/Graphics/SVG/1.1/DTD/svg11.dtd">
<svg width="100%" height="100%" viewBox="0 0 2000 2000" version="1.1" xmlns="http://www.w3.org/2000/svg" xmlns:xlink="http://www.w3.org/1999/xlink" xml:space="preserve" xmlns:serif="http://www.serif.com/" style="fill-rule:evenodd;clip-rule:evenodd;stroke-linejoin:round;stroke-miterlimit:2;">
    <path d="M1025,479C1405.696,479 1384.927,885.768 1419,986C1453.073,1086.232 1539.862,1163.144 1534,1256C1528.138,1348.856 1474.286,1373.288 1432,1373C1389.714,1372.712 1364.22,1346.864 1313,1352C1215.554,1361.772 1221.62,1437 1091,1437C958.611,1437 898.912,1315.996 785,1316C720.088,1316.002 726.008,1332.754 672,1335C617.992,1337.246 566.748,1294.612 568,1229C569.671,1141.377 612.218,1125.706 650,1022C693.949,901.365 644.304,479 1025,479Z" style="fill:rgb(125,135,232);"/>
</svg>
