<?xml version="1.0" encoding="UTF-8" standalone="no"?>
<!DOCTYPE svg PUBLIC "-//W3C//DTD SVG 1.1//EN" "http://www.w3.org/Graphics/SVG/1.1/DTD/svg11.dtd">
<svg width="100%" height="100%" viewBox="0 0 2000 2000" version="1.1" xmlns="http://www.w3.org/2000/svg" xmlns:xlink="http://www.w3.org/1999/xlink" xml:space="preserve" xmlns:serif="http://www.serif.com/" style="fill-rule:evenodd;clip-rule:evenodd;stroke-linejoin:round;stroke-miterlimit:2;">
    <g>
        <path d="M894.169,809.181C890.633,806.772 888.199,803.058 887.401,798.855C886.604,794.652 887.509,790.304 889.918,786.768C892.477,783.012 895.26,778.925 897.819,775.169C900.228,771.633 903.942,769.199 908.145,768.401C912.348,767.604 916.696,768.509 920.232,770.918C952.464,792.873 1034.736,848.914 1072.518,874.649C1076.921,877.648 1079.559,882.628 1079.568,887.956C1079.576,893.283 1076.953,898.271 1072.559,901.284C1034.436,927.426 950.818,984.764 918.303,1007.06C910.956,1012.098 900.916,1010.226 895.878,1002.879C893.307,999.13 890.511,995.052 887.94,991.303C885.521,987.775 884.602,983.43 885.386,979.225C886.171,975.019 888.593,971.297 892.121,968.878C925.469,946.011 1009.975,888.064 1009.975,888.064C1009.975,888.064 927.162,831.655 894.169,809.181Z"/>
        <g transform="matrix(0.816901,0,0,1,213.408451,0)">
            <path d="M1091.693,1034.917C1086.456,1034.917 1081.433,1033.217 1077.73,1030.192C1074.027,1027.167 1071.947,1023.064 1071.947,1018.786C1071.947,1014.384 1071.947,1009.616 1071.947,1005.214C1071.947,1000.936 1074.027,996.833 1077.73,993.808C1081.433,990.783 1086.456,989.083 1091.693,989.083C1129.642,989.083 1212.358,989.083 1250.307,989.083C1255.544,989.083 1260.567,990.783 1264.27,993.808C1267.973,996.833 1270.053,1000.936 1270.053,1005.214C1270.053,1009.616 1270.053,1014.384 1270.053,1018.786C1270.053,1023.064 1267.973,1027.167 1264.27,1030.192C1260.567,1033.217 1255.544,1034.917 1250.307,1034.917C1212.358,1034.917 1129.642,1034.917 1091.693,1034.917Z"/>
        </g>
    </g>
</svg>
